# xmcd
#
# Track frame offsets: 
#        150
#        9987
#        26395
#        36845
#        51265
#        62012
#        71550
#        87005
#        99857
#        110607
#
# Disc length: 1651 seconds
#
# Revision: 0
# Processed by: cddbd v1.5.2PL0 Copyright (c) Steve Scherf et al.
# Submitted via: ExactAudioCopy v0.95b3
#
DISCID=7306710a
DTITLE=Various Artist - Christmas Down Home
DYEAR=1900
DGENRE=Country
TTITLE0=Jingle Bells
TTITLE1=The First Noel
TTITLE2=Silver Bells
TTITLE3=It Came Upon The Midnight Clear
TTITLE4=White Christmas
TTITLE5=Soon It Will Be Christmas Day
TTITLE6=What Child Is This
TTITLE7=Little Town Of Bethlehem
TTITLE8=Blue Christmas
TTITLE9=Silent Night, Holy Night
EXTD=
EXTT0=
EXTT1=
EXTT2=
EXTT3=
EXTT4=
EXTT5=
EXTT6=
EXTT7=
EXTT8=
EXTT9=
PLAYORDER=
